<mxfile host="app.diagrams.net" agent="Mozilla/5.0 (Windows NT 10.0; Win64; x64) AppleWebKit/537.36 (KHTML, like Gecko) Chrome/134.0.0.0 Safari/537.36" version="26.1.1">
  <diagram id="C5RBs43oDa-KdzZeNtuy" name="Page-1">
    <mxGraphModel dx="1313" dy="773" grid="1" gridSize="15" guides="1" tooltips="1" connect="1" arrows="1" fold="1" page="1" pageScale="1" pageWidth="1169" pageHeight="1654" math="0" shadow="0">
      <root>
        <mxCell id="WIyWlLk6GJQsqaUBKTNV-0" />
        <mxCell id="WIyWlLk6GJQsqaUBKTNV-1" parent="WIyWlLk6GJQsqaUBKTNV-0" />
        <mxCell id="aVBZB-J2xSKalm87GnQg-1" value="&lt;font size=&quot;3&quot;&gt;Building&lt;/font&gt;" style="rounded=0;whiteSpace=wrap;html=1;" vertex="1" parent="WIyWlLk6GJQsqaUBKTNV-1">
          <mxGeometry x="500" y="24" width="210" height="90" as="geometry" />
        </mxCell>
        <mxCell id="aVBZB-J2xSKalm87GnQg-2" value="&lt;font size=&quot;3&quot;&gt;Room&lt;/font&gt;" style="rounded=0;whiteSpace=wrap;html=1;" vertex="1" parent="WIyWlLk6GJQsqaUBKTNV-1">
          <mxGeometry x="550" y="254" width="110" height="60" as="geometry" />
        </mxCell>
        <mxCell id="aVBZB-J2xSKalm87GnQg-3" value="&lt;font size=&quot;3&quot;&gt;Floor&lt;/font&gt;" style="rounded=0;whiteSpace=wrap;html=1;" vertex="1" parent="WIyWlLk6GJQsqaUBKTNV-1">
          <mxGeometry x="550" y="154" width="110" height="50" as="geometry" />
        </mxCell>
        <mxCell id="aVBZB-J2xSKalm87GnQg-9" value="&lt;font size=&quot;3&quot;&gt;Sensor&lt;/font&gt;" style="rounded=0;whiteSpace=wrap;html=1;" vertex="1" parent="WIyWlLk6GJQsqaUBKTNV-1">
          <mxGeometry x="360" y="518" width="120" height="60" as="geometry" />
        </mxCell>
        <mxCell id="aVBZB-J2xSKalm87GnQg-10" value="&lt;font size=&quot;3&quot;&gt;Actuator&lt;/font&gt;" style="rounded=0;whiteSpace=wrap;html=1;" vertex="1" parent="WIyWlLk6GJQsqaUBKTNV-1">
          <mxGeometry x="840" y="518" width="120" height="60" as="geometry" />
        </mxCell>
        <mxCell id="aVBZB-J2xSKalm87GnQg-11" value="&lt;font size=&quot;3&quot;&gt;Etasjeareal&lt;/font&gt;" style="ellipse;whiteSpace=wrap;html=1;" vertex="1" parent="WIyWlLk6GJQsqaUBKTNV-1">
          <mxGeometry x="340" y="139" width="120" height="80" as="geometry" />
        </mxCell>
        <mxCell id="aVBZB-J2xSKalm87GnQg-12" value="&lt;font size=&quot;3&quot;&gt;Areal m^2&lt;/font&gt;" style="ellipse;whiteSpace=wrap;html=1;" vertex="1" parent="WIyWlLk6GJQsqaUBKTNV-1">
          <mxGeometry x="300" y="244" width="120" height="80" as="geometry" />
        </mxCell>
        <mxCell id="aVBZB-J2xSKalm87GnQg-13" value="&lt;font size=&quot;3&quot;&gt;Etasje-&lt;/font&gt;&lt;div&gt;&lt;font size=&quot;3&quot;&gt;nummer&lt;/font&gt;&lt;/div&gt;" style="ellipse;whiteSpace=wrap;html=1;" vertex="1" parent="WIyWlLk6GJQsqaUBKTNV-1">
          <mxGeometry x="720" y="139" width="120" height="80" as="geometry" />
        </mxCell>
        <mxCell id="aVBZB-J2xSKalm87GnQg-14" value="&lt;font style=&quot;font-size: 24px;&quot;&gt;Navn&lt;/font&gt;" style="ellipse;whiteSpace=wrap;html=1;" vertex="1" parent="WIyWlLk6GJQsqaUBKTNV-1">
          <mxGeometry x="760" y="244" width="120" height="80" as="geometry" />
        </mxCell>
        <mxCell id="aVBZB-J2xSKalm87GnQg-15" value="" style="endArrow=classic;html=1;rounded=0;entryX=1;entryY=0.5;entryDx=0;entryDy=0;exitX=0;exitY=0.5;exitDx=0;exitDy=0;" edge="1" parent="WIyWlLk6GJQsqaUBKTNV-1" source="aVBZB-J2xSKalm87GnQg-3" target="aVBZB-J2xSKalm87GnQg-11">
          <mxGeometry width="50" height="50" relative="1" as="geometry">
            <mxPoint x="550" y="174" as="sourcePoint" />
            <mxPoint x="430" y="154" as="targetPoint" />
          </mxGeometry>
        </mxCell>
        <mxCell id="aVBZB-J2xSKalm87GnQg-16" value="" style="endArrow=classic;html=1;rounded=0;entryX=1;entryY=0.5;entryDx=0;entryDy=0;" edge="1" parent="WIyWlLk6GJQsqaUBKTNV-1" target="aVBZB-J2xSKalm87GnQg-12">
          <mxGeometry width="50" height="50" relative="1" as="geometry">
            <mxPoint x="550" y="283.5" as="sourcePoint" />
            <mxPoint x="510" y="283.5" as="targetPoint" />
          </mxGeometry>
        </mxCell>
        <mxCell id="aVBZB-J2xSKalm87GnQg-17" value="" style="endArrow=classic;html=1;rounded=0;entryX=0.253;entryY=0.973;entryDx=0;entryDy=0;exitX=0.5;exitY=0;exitDx=0;exitDy=0;entryPerimeter=0;" edge="1" parent="WIyWlLk6GJQsqaUBKTNV-1" source="aVBZB-J2xSKalm87GnQg-12" target="aVBZB-J2xSKalm87GnQg-11">
          <mxGeometry width="50" height="50" relative="1" as="geometry">
            <mxPoint x="410" y="264" as="sourcePoint" />
            <mxPoint x="460" y="214" as="targetPoint" />
          </mxGeometry>
        </mxCell>
        <mxCell id="aVBZB-J2xSKalm87GnQg-18" value="" style="endArrow=classic;html=1;rounded=0;exitX=1;exitY=0.5;exitDx=0;exitDy=0;entryX=0;entryY=0.5;entryDx=0;entryDy=0;" edge="1" parent="WIyWlLk6GJQsqaUBKTNV-1" source="aVBZB-J2xSKalm87GnQg-4" target="aVBZB-J2xSKalm87GnQg-10">
          <mxGeometry width="50" height="50" relative="1" as="geometry">
            <mxPoint x="639.9985714285713" y="393.5" as="sourcePoint" />
            <mxPoint x="730" y="394" as="targetPoint" />
          </mxGeometry>
        </mxCell>
        <mxCell id="aVBZB-J2xSKalm87GnQg-19" value="" style="endArrow=classic;html=1;rounded=0;entryX=1;entryY=0.5;entryDx=0;entryDy=0;" edge="1" parent="WIyWlLk6GJQsqaUBKTNV-1" target="aVBZB-J2xSKalm87GnQg-9">
          <mxGeometry width="50" height="50" relative="1" as="geometry">
            <mxPoint x="550" y="394" as="sourcePoint" />
            <mxPoint x="460" y="374" as="targetPoint" />
          </mxGeometry>
        </mxCell>
        <mxCell id="aVBZB-J2xSKalm87GnQg-4" value="&lt;font size=&quot;3&quot;&gt;Device&lt;/font&gt;" style="rounded=0;whiteSpace=wrap;html=1;" vertex="1" parent="WIyWlLk6GJQsqaUBKTNV-1">
          <mxGeometry x="550" y="364" width="110" height="60" as="geometry" />
        </mxCell>
        <mxCell id="aVBZB-J2xSKalm87GnQg-20" value="" style="endArrow=classic;html=1;rounded=0;entryX=0;entryY=0.5;entryDx=0;entryDy=0;" edge="1" parent="WIyWlLk6GJQsqaUBKTNV-1" target="aVBZB-J2xSKalm87GnQg-14">
          <mxGeometry width="50" height="50" relative="1" as="geometry">
            <mxPoint x="659" y="283.5" as="sourcePoint" />
            <mxPoint x="750" y="283.5" as="targetPoint" />
          </mxGeometry>
        </mxCell>
        <mxCell id="aVBZB-J2xSKalm87GnQg-21" value="" style="endArrow=classic;html=1;rounded=0;entryX=0;entryY=0.5;entryDx=0;entryDy=0;" edge="1" parent="WIyWlLk6GJQsqaUBKTNV-1" target="aVBZB-J2xSKalm87GnQg-13">
          <mxGeometry width="50" height="50" relative="1" as="geometry">
            <mxPoint x="660" y="178.5" as="sourcePoint" />
            <mxPoint x="716" y="178.5" as="targetPoint" />
          </mxGeometry>
        </mxCell>
        <mxCell id="aVBZB-J2xSKalm87GnQg-22" value="&lt;font size=&quot;3&quot;&gt;Modell-&lt;/font&gt;&lt;div&gt;&lt;font size=&quot;3&quot;&gt;navn&lt;/font&gt;&lt;/div&gt;" style="ellipse;whiteSpace=wrap;html=1;" vertex="1" parent="WIyWlLk6GJQsqaUBKTNV-1">
          <mxGeometry x="320" y="354" width="120" height="80" as="geometry" />
        </mxCell>
        <mxCell id="aVBZB-J2xSKalm87GnQg-23" value="&lt;font size=&quot;3&quot;&gt;Produsent-&lt;/font&gt;&lt;div&gt;&lt;font size=&quot;3&quot;&gt;navn&lt;/font&gt;&lt;/div&gt;" style="ellipse;whiteSpace=wrap;html=1;" vertex="1" parent="WIyWlLk6GJQsqaUBKTNV-1">
          <mxGeometry x="740" y="354" width="120" height="80" as="geometry" />
        </mxCell>
        <mxCell id="aVBZB-J2xSKalm87GnQg-24" value="" style="endArrow=classic;html=1;rounded=0;entryX=1;entryY=0.5;entryDx=0;entryDy=0;" edge="1" parent="WIyWlLk6GJQsqaUBKTNV-1" target="aVBZB-J2xSKalm87GnQg-22">
          <mxGeometry width="50" height="50" relative="1" as="geometry">
            <mxPoint x="550" y="393.5" as="sourcePoint" />
            <mxPoint x="500" y="393.5" as="targetPoint" />
          </mxGeometry>
        </mxCell>
        <mxCell id="aVBZB-J2xSKalm87GnQg-25" value="" style="endArrow=classic;html=1;rounded=0;entryX=0;entryY=0.5;entryDx=0;entryDy=0;" edge="1" parent="WIyWlLk6GJQsqaUBKTNV-1" target="aVBZB-J2xSKalm87GnQg-23">
          <mxGeometry width="50" height="50" relative="1" as="geometry">
            <mxPoint x="660" y="393.5" as="sourcePoint" />
            <mxPoint x="700" y="393.5" as="targetPoint" />
          </mxGeometry>
        </mxCell>
        <mxCell id="aVBZB-J2xSKalm87GnQg-26" value="" style="shape=flexArrow;endArrow=classic;html=1;rounded=0;entryX=0.5;entryY=0;entryDx=0;entryDy=0;" edge="1" parent="WIyWlLk6GJQsqaUBKTNV-1" target="aVBZB-J2xSKalm87GnQg-3">
          <mxGeometry width="50" height="50" relative="1" as="geometry">
            <mxPoint x="604.5" y="114" as="sourcePoint" />
            <mxPoint x="605" y="159" as="targetPoint" />
          </mxGeometry>
        </mxCell>
        <mxCell id="aVBZB-J2xSKalm87GnQg-27" value="" style="shape=flexArrow;endArrow=classic;html=1;rounded=0;entryX=0.5;entryY=0;entryDx=0;entryDy=0;" edge="1" parent="WIyWlLk6GJQsqaUBKTNV-1" target="aVBZB-J2xSKalm87GnQg-2">
          <mxGeometry width="50" height="50" relative="1" as="geometry">
            <mxPoint x="604.5" y="204" as="sourcePoint" />
            <mxPoint x="604.5" y="244" as="targetPoint" />
          </mxGeometry>
        </mxCell>
        <mxCell id="aVBZB-J2xSKalm87GnQg-28" value="" style="shape=flexArrow;endArrow=classic;html=1;rounded=0;entryX=0.5;entryY=0;entryDx=0;entryDy=0;" edge="1" parent="WIyWlLk6GJQsqaUBKTNV-1" target="aVBZB-J2xSKalm87GnQg-4">
          <mxGeometry width="50" height="50" relative="1" as="geometry">
            <mxPoint x="604.5" y="314" as="sourcePoint" />
            <mxPoint x="605" y="369" as="targetPoint" />
          </mxGeometry>
        </mxCell>
        <mxCell id="aVBZB-J2xSKalm87GnQg-29" value="&lt;font style=&quot;font-size: 24px;&quot;&gt;Sanntids-&lt;/font&gt;&lt;div&gt;&lt;font style=&quot;font-size: 24px;&quot;&gt;måling&lt;/font&gt;&lt;/div&gt;" style="ellipse;whiteSpace=wrap;html=1;" vertex="1" parent="WIyWlLk6GJQsqaUBKTNV-1">
          <mxGeometry x="335" y="760" width="165" height="90" as="geometry" />
        </mxCell>
        <mxCell id="aVBZB-J2xSKalm87GnQg-30" value="&lt;font size=&quot;3&quot;&gt;Av&lt;/font&gt;" style="ellipse;whiteSpace=wrap;html=1;" vertex="1" parent="WIyWlLk6GJQsqaUBKTNV-1">
          <mxGeometry x="930" y="657" width="120" height="80" as="geometry" />
        </mxCell>
        <mxCell id="aVBZB-J2xSKalm87GnQg-31" value="&lt;font size=&quot;3&quot;&gt;Husnavn&lt;/font&gt;" style="ellipse;whiteSpace=wrap;html=1;" vertex="1" parent="WIyWlLk6GJQsqaUBKTNV-1">
          <mxGeometry x="540" y="602" width="120" height="80" as="geometry" />
        </mxCell>
        <mxCell id="aVBZB-J2xSKalm87GnQg-32" value="&lt;font size=&quot;3&quot;&gt;Dreier seg&lt;/font&gt;&lt;div&gt;&lt;font size=&quot;3&quot;&gt;om&lt;/font&gt;&lt;/div&gt;" style="ellipse;whiteSpace=wrap;html=1;" vertex="1" parent="WIyWlLk6GJQsqaUBKTNV-1">
          <mxGeometry x="705" y="602" width="120" height="80" as="geometry" />
        </mxCell>
        <mxCell id="aVBZB-J2xSKalm87GnQg-33" value="" style="endArrow=classic;html=1;rounded=0;exitX=0.25;exitY=1;exitDx=0;exitDy=0;entryX=0.5;entryY=0;entryDx=0;entryDy=0;" edge="1" parent="WIyWlLk6GJQsqaUBKTNV-1" source="aVBZB-J2xSKalm87GnQg-4" target="aVBZB-J2xSKalm87GnQg-31">
          <mxGeometry width="50" height="50" relative="1" as="geometry">
            <mxPoint x="450" y="677" as="sourcePoint" />
            <mxPoint x="450" y="762" as="targetPoint" />
          </mxGeometry>
        </mxCell>
        <mxCell id="aVBZB-J2xSKalm87GnQg-34" value="" style="endArrow=classic;html=1;rounded=0;exitX=0.75;exitY=1;exitDx=0;exitDy=0;entryX=0.5;entryY=0;entryDx=0;entryDy=0;" edge="1" parent="WIyWlLk6GJQsqaUBKTNV-1" source="aVBZB-J2xSKalm87GnQg-4" target="aVBZB-J2xSKalm87GnQg-32">
          <mxGeometry width="50" height="50" relative="1" as="geometry">
            <mxPoint x="450" y="677" as="sourcePoint" />
            <mxPoint x="435" y="822" as="targetPoint" />
          </mxGeometry>
        </mxCell>
        <mxCell id="aVBZB-J2xSKalm87GnQg-35" value="&lt;font style=&quot;font-size: 18px;&quot;&gt;Historikk av&lt;/font&gt;&lt;div&gt;&lt;font style=&quot;font-size: 18px;&quot;&gt;målinger&lt;/font&gt;&lt;/div&gt;" style="ellipse;whiteSpace=wrap;html=1;" vertex="1" parent="WIyWlLk6GJQsqaUBKTNV-1">
          <mxGeometry x="70" y="518" width="120" height="80" as="geometry" />
        </mxCell>
        <mxCell id="aVBZB-J2xSKalm87GnQg-36" value="&lt;font size=&quot;3&quot;&gt;På&lt;/font&gt;" style="ellipse;whiteSpace=wrap;html=1;" vertex="1" parent="WIyWlLk6GJQsqaUBKTNV-1">
          <mxGeometry x="1035" y="522" width="120" height="80" as="geometry" />
        </mxCell>
        <mxCell id="aVBZB-J2xSKalm87GnQg-37" value="" style="endArrow=classic;html=1;rounded=0;entryX=0;entryY=0.5;entryDx=0;entryDy=0;exitX=1;exitY=0.5;exitDx=0;exitDy=0;" edge="1" parent="WIyWlLk6GJQsqaUBKTNV-1" source="aVBZB-J2xSKalm87GnQg-10" target="aVBZB-J2xSKalm87GnQg-36">
          <mxGeometry width="50" height="50" relative="1" as="geometry">
            <mxPoint x="780" y="677" as="sourcePoint" />
            <mxPoint x="830" y="627" as="targetPoint" />
          </mxGeometry>
        </mxCell>
        <mxCell id="aVBZB-J2xSKalm87GnQg-38" value="" style="endArrow=classic;html=1;rounded=0;entryX=0.5;entryY=0;entryDx=0;entryDy=0;exitX=0.5;exitY=1;exitDx=0;exitDy=0;" edge="1" parent="WIyWlLk6GJQsqaUBKTNV-1" source="aVBZB-J2xSKalm87GnQg-10" target="aVBZB-J2xSKalm87GnQg-30">
          <mxGeometry width="50" height="50" relative="1" as="geometry">
            <mxPoint x="780" y="677" as="sourcePoint" />
            <mxPoint x="830" y="627" as="targetPoint" />
          </mxGeometry>
        </mxCell>
        <mxCell id="aVBZB-J2xSKalm87GnQg-39" value="" style="endArrow=classic;html=1;rounded=0;entryX=0.5;entryY=0;entryDx=0;entryDy=0;exitX=0.5;exitY=1;exitDx=0;exitDy=0;" edge="1" parent="WIyWlLk6GJQsqaUBKTNV-1" source="aVBZB-J2xSKalm87GnQg-9" target="aVBZB-J2xSKalm87GnQg-29">
          <mxGeometry width="50" height="50" relative="1" as="geometry">
            <mxPoint x="465" y="587" as="sourcePoint" />
            <mxPoint x="515" y="537" as="targetPoint" />
          </mxGeometry>
        </mxCell>
        <mxCell id="aVBZB-J2xSKalm87GnQg-40" value="" style="endArrow=classic;html=1;rounded=0;entryX=1;entryY=0.5;entryDx=0;entryDy=0;exitX=0;exitY=0.5;exitDx=0;exitDy=0;" edge="1" parent="WIyWlLk6GJQsqaUBKTNV-1" source="aVBZB-J2xSKalm87GnQg-9" target="aVBZB-J2xSKalm87GnQg-35">
          <mxGeometry width="50" height="50" relative="1" as="geometry">
            <mxPoint x="465" y="587" as="sourcePoint" />
            <mxPoint x="515" y="537" as="targetPoint" />
          </mxGeometry>
        </mxCell>
        <mxCell id="aVBZB-J2xSKalm87GnQg-41" value="&lt;div&gt;&lt;font size=&quot;3&quot;&gt;&lt;br&gt;&lt;/font&gt;&lt;/div&gt;&lt;font size=&quot;3&quot;&gt;1. Numerisk verdi&lt;/font&gt;&lt;div&gt;&lt;font size=&quot;3&quot;&gt;2.Måleenhet&lt;/font&gt;&lt;div&gt;&lt;font size=&quot;3&quot;&gt;3. Dato&lt;/font&gt;&lt;/div&gt;&lt;div&gt;&lt;font size=&quot;3&quot;&gt;4&lt;/font&gt;&lt;span style=&quot;font-size: medium; background-color: transparent; color: light-dark(rgb(0, 0, 0), rgb(255, 255, 255));&quot;&gt;. Klokkeslett&lt;/span&gt;&lt;/div&gt;&lt;div&gt;&lt;br&gt;&lt;/div&gt;&lt;/div&gt;" style="ellipse;whiteSpace=wrap;html=1;aspect=fixed;" vertex="1" parent="WIyWlLk6GJQsqaUBKTNV-1">
          <mxGeometry x="30" y="705" width="200" height="200" as="geometry" />
        </mxCell>
        <mxCell id="aVBZB-J2xSKalm87GnQg-42" value="" style="endArrow=classic;html=1;rounded=0;entryX=1;entryY=0.5;entryDx=0;entryDy=0;exitX=0;exitY=0.5;exitDx=0;exitDy=0;" edge="1" parent="WIyWlLk6GJQsqaUBKTNV-1" source="aVBZB-J2xSKalm87GnQg-29" target="aVBZB-J2xSKalm87GnQg-41">
          <mxGeometry width="50" height="50" relative="1" as="geometry">
            <mxPoint x="540" y="800" as="sourcePoint" />
            <mxPoint x="590" y="750" as="targetPoint" />
          </mxGeometry>
        </mxCell>
        <mxCell id="aVBZB-J2xSKalm87GnQg-43" value="" style="endArrow=classic;html=1;rounded=0;entryX=0.5;entryY=0;entryDx=0;entryDy=0;exitX=0.5;exitY=1;exitDx=0;exitDy=0;" edge="1" parent="WIyWlLk6GJQsqaUBKTNV-1" source="aVBZB-J2xSKalm87GnQg-35" target="aVBZB-J2xSKalm87GnQg-41">
          <mxGeometry width="50" height="50" relative="1" as="geometry">
            <mxPoint x="540" y="800" as="sourcePoint" />
            <mxPoint x="590" y="750" as="targetPoint" />
          </mxGeometry>
        </mxCell>
      </root>
    </mxGraphModel>
  </diagram>
</mxfile>
